<svg xmlns="http://www.w3.org/2000/svg" height="512.00102" width="512"><rect id="backgroundrect" width="100%" height="100%" x="0" y="0" fill="none" stroke="none"/><g class="currentLayer" style=""><title>Layer 1</title><path d="m434.57499402749016,445.2782095374646 l-30.74171165807408,-292.74984183517404 c-0.6449523877247572,-6.128592113384485 -5.810745259571135,-10.782125599102557 -11.973282443359494,-10.782125599102557 h-57.780345481820405 v-13.17369638773495 c0,-41.06403872166878 -33.41101283003694,-74.47505155170572 -74.47505155170572,-74.47505155170572 c-41.067123631718516,0 -74.47813646175545,33.41101283003694 -74.47813646175545,74.47505155170572 v13.17369638773495 h-57.780345481820405 c-6.162537973778129,0 -11.328330055634737,4.6535334857180715 -11.973282443359494,10.782125599102557 l-30.741711500076125,292.74984183517404 c-0.35487857224445407,3.3914015906036497 0.7467874409384253,6.776630991138518 3.027265128250909,9.313239161504924 c2.2835649673315292,2.533521680337131 5.536100576280177,3.9808074276684526 8.946017157110632,3.9808074276684526 h325.99421580322087 c3.4130030708597308,0 6.665538679808378,-1.4472857473313214 8.946017157110632,-3.9808074276684526 c2.286649877381265,-2.5366081703664065 3.385229400534868,-5.921837570901275 3.0303517762781382,-9.313239161504924 zm-225.37235540843923,-316.70566382201156 c0,-27.788507912711978 22.610371450717807,-50.398879363429785 50.40196427347952,-50.398879363429785 c27.788507912711978,0 50.398879363429785,22.610371450717807 50.398879363429785,50.398879363429785 v13.17369638773495 h-100.8008436369093 zm-99.23012119811028,305.923538222909 l28.214361377815962,-268.67366964689813 h46.93958763201839 v26.529460927647293 c0,6.647023689581573 5.391063194546163,12.038086884127736 12.038086094137967,12.038086884127736 s12.038086094137967,-5.391063194546163 12.038086094137967,-12.038086884127736 v-26.529460927647293 h100.8008436369093 v26.529460927647293 c0,6.647023689581573 5.3910624045563935,12.038086884127736 12.038086094137967,12.038086884127736 c6.6470228995918035,0 12.038086094137967,-5.391063194546163 12.038086094137967,-12.038086884127736 v-26.529460927647293 h46.93958763201839 l28.214360587826192,268.67366964689813 zm0,0 " id="svg_1" class=""/></g></svg>